<svg xmlns="http://www.w3.org/2000/svg" viewBox="0 0 1622.8627 1622.8627" width="300" height="300">
<path fill="#93bbc7" d="m 1008,1551 c 11,3 27,3 39,-4 l 0,0 c 7,-4 12,-10 15,-17 -4,-3 -7,-6 -11,-9 -3,-1 -6,-1 -8,-1 -5,0 -10,-1 -14,-2 -42.8,-7 -68,-30 -87.1,-52 -1.4,-2 -2.9,-4 -4.3,-6 8,14 17.4,31 24.6,45 9.3,17 24.8,40 45.8,46 z" />
<path fill="#93bbc7" d="m 1064,1522 c 0,0 0,-1 0,-1 l 0,0 c -3,0 -6,0 -8,0 2,2 4,4 7,6 0,-1 1,-3 1,-5 z" />
<path fill="#93bbc7" d="m 1440,1446 c -2,-3 -3,-7 -4,-10 l -23,-23 c 6,12 11,24 14,33 27,81 39,148 8,165 l 3,0 c 34,-7 31,-83 2,-165 z" />
<path fill="#93bbc7" d="m 1136,1295 c 14,5 26,0 31,-4 2,5 6,18 22,18 1,0 1,0 2,0 22,0 28,-17 34,-30 1,-4 2,-7 4,-10 l 0,0 c 6,-11 10,-19 15,-25 l -33,-33 c -4,0 -8,1 -12,1 -25,4 -37,13 -46,21 -8,8 -14,21 -7,35 4,8 15,15 16,15 l 0,1 1,-1 c 0,0 6,-1 15,-16 4,-6 14,-17 21,-23 8,-5 17,-8 25,-10 -1,0 -1,0 -2,1 -1,0 -1,0 -2,0 -8,4 -17,8 -37,36 -7,10 -16,17 -16,17 l 0,0 c -5,3 -16,9 -30,5 -11,-4 -20,-12 -25,-22 -6,-15 -9,-36 0,-54 11,-23 29,-37 64,-41 l -5,-5 c -32,5 -54,20 -65,45 -8,20 -7,39 2,58 6,11 16,18 28,21 z" />
<path fill="#93bbc7" d="m 1499,1499 c 0,0 0,0 0,0 l -13,-13 c 0,4 0,8 0,12 -1,38 -18,112 -45,113 l 4,0 c 34,-7 52,-63 54,-112 z" />
<path fill="#93bbc7" d="m 1314,1315 c -18,-10 -30,-17 -38,-31 -2,-3 -4,-8 -5,-13 l -13,-13 c -4,12 -9,32 -13,48 -2,9 -6,29 -6,49 0,19 4,35 10,46 3,3 12,16 28,16 4,0 7,0 11,-1 18,-6 23,-17 24,-21 7,5 16,11 25,17 16,12 32,23 44,33 27,22 43,45 55,92 18,67 -4,73 -4,74 l 1,0 c 20,-12 16,-40 9,-75 -10,-48 -31,-70 -59,-93 l 0,-1 c -12,-9 -29,-21 -45,-32 -17,-12 -33,-23 -42,-32 -4,-5 -9,-11 -14,-20 -3,-9 -6,-18 -8,-27 6,14 14,31 24,40 6,5 13,8 20,9 13,0 24,-8 27,-18 2,-6 2,-12 0,-17 l -28,-28 c -1,-1 -2,-1 -3,-2 z" />
<path fill="#93bbc7" d="m 1457,1467 c 11,46 10,100 10,100 l 0,0 c 0,0 5,-7 10,-38 2,-14 3,-33 3,-41 0,-3 0,-6 -1,-9 l -27,-27 c 2,5 4,10 5,15 z" />
<path fill="#93bbc7" d="m 1510,1510 c 0,3 -1,5 -1,5 0,0 1,-2 2,-4 l -1,-1 z" />
<path fill="#93bbc7" d="M 1127,1144" />
<path fill="#93bbc7" d="m 814.5,1386 c -1,-2 -2,-4 -3.1,-7 l 0,8 c 0.2,0 0.3,0 0.4,0 12.7,32 12.4,68 -0.4,102 l 0,7 c 15.6,-36 16.9,-75 3.1,-110 z" />
<path fill="#93bbc7" d="m 861.3,1573 c 29.8,-12 44,-36 50.6,-55 7.6,-21 9.4,-46 4.6,-65 -5.1,-21 -16.8,-42 -26.4,-57 11.3,14 20.8,27 29.2,39 0.6,1 1.2,2 1.8,3 6.2,10 25.9,44 38.6,68 9.5,18 25.5,41 48.3,47 5,2 25,6 41,-4 7,-4 12,-9 15,-17 4,3 7,6 11,9 29,24 59,32 81,34 -1,2 -2,5 -3,9 0,5 2,9 5,13 6,8 20,10 32,5 20,-9 35,-24 46,-34 4,-4 7,-7 9,-9 l 6,-5 -7,3 c 0,0 -16,5 -28,1 -10,-2 -13,-4 -19,-7 -2,-1 -4,-3 -8,-4 -9,-5 -18,-6 -24,-3 -4,1 -7,5 -8,10 -1,1 -1,2 -1,3 0,5 1,9 1,10 l 1,0 0,1 c 4,0 10,2 23,2 3,0 23,1 44,-3 -15,6 -62,6 -64,6 -22,-2 -53,-10 -84,-34 -4,-3 -8,-6 -12,-10 1,-2 1,-4 2,-6 0,-1 0,-1 0,-2 8,0 17,1 28,1 10,0 21,0 33,0 26,1 47,2 89,6 47,5 82,21 82,21 l 7,3 -5,-5 c -2,-2 -37,-39 -70,-50 -30,-9 -63,-7 -70,-7 -1,-4 -4,-17 -18,-26 -14,-11 -38,-3 -39,-3 l -5,1 5,2 c 0,0 13,3 18,13 2,5 2,10 -1,17 -2,5 -12,21 -53,23 2,-22 -9,-74 -57,-114 8,7 24,13 48,46 10,14 12,29 12,29 6,2 29,-9 21,-33 -7,-20 -20,-28 -39,-36 -13,-5 -25,-9 -46,-15 -7.4,-3 -15.8,-5 -25.8,-9 l -7.7,-2 6.4,5 c 0.2,0 11.6,9 25.1,32 3,7 12,28 14,36 3,14 3,25 8,31 3,5 8,8 14,8 5,1 10,-1 13,-4 4,-3 6,-7 6,-11 3,10 6,25 5,37 -4,1 -8,1 -13,0 -23,-21 -48,-50 -75.1,-82 -16.7,-21 -69,-80 -152.5,-119 -4.6,-2 -8.9,-4 -13,-6 l 0,7 c 5.8,2 11.9,5 19.3,9 l 0,0 c 81.6,42 122.6,88 140.1,109 26.4,31 55.2,61 77.2,82 -2,0 -3,0 -5,0 -5,0 -9,-1 -14,-2 -41.4,-6 -66.2,-30 -84.9,-51 -6.6,-8 -13.4,-18 -20.5,-28 -1.2,-2 -1.8,-3 -1.9,-3 l -0.2,0 c -16.5,-23 -35.1,-53 -65.9,-79 -14.9,-12 -26.6,-22 -44.2,-33 l 0,6 c 14.6,9 28.3,19 40.3,29 26.5,24 52.8,60 62,98 8.6,35 -2.5,96 -53.5,116 -17.2,7 -33.7,9 -48.8,8 l 0,3 c 16.2,1 33.1,-1 49.9,-8 z m 202.7,-52 0,0 c 0,0 0,1 0,1 0,2 -1,4 -1,5 -3,-2 -5,-4 -7,-6 2,0 5,0 8,0 z m -122.1,-55 c 19.1,22 44.3,45 87.1,52 4,1 9,2 14,2 2,0 5,0 8,1 4,3 7,6 11,9 -3,7 -8,13 -15,17 l 0,0 c -12,7 -28,7 -39,4 -21,-6 -36.5,-29 -45.8,-46 -7.2,-14 -16.6,-31 -24.6,-45 1.4,2 2.9,4 4.3,6 z" />
<path fill="#93bbc7" d="m 811.4,1299 c 4.7,2 9.4,3 14,4 45.9,12 87.1,-13 87.5,-13 l 5.9,-3 -6.8,0 c -0.3,1 -23.9,4 -39.7,2 -21.9,-4 -30.7,-6 -55.2,-16 -1.9,-1 -3.8,-1 -5.7,-2 l 0,28 z" />
<path fill="#c1d2a8" d="m 949.5,1321 -53.3,21 c 33.6,14 73.1,19 120.8,23 53,4 80,36 80,36 l 5,6 -3,-7 c 0,-1 -16,-49 -59,-66 -12,-5 -30,-4 -37,-3 3,-5 8,-15 8,-28 1,-2 1,-5 0,-7 -2,-33 -31.5,-42 -31.8,-43 l -2.8,0 1,2 c 0,0 3.9,11 3.1,24 -0.8,14 -6.8,32 -31,42 z" />
<path fill="#93bbc7" d="m 903.6,1570 c -9.2,8 -16.1,12 -16.1,12 0,0 15.2,1 26.1,-3 18.3,-8 23.5,-23 23.5,-23 0,0 1.7,5 15.8,13 19.1,10 54.1,-1 54.1,-1 l 0,0 c 0,0 -31.5,1 -52.3,-22 -14.1,-16 -29.2,-86 -29.2,-86 0,0 3.9,30 3.7,48 -0.2,20 -4.5,45 -25.6,62 z" />
<path fill="#aa5b8f" d="m 840.3,1405 c -6.3,-18 -18.3,-34 -28.9,-46 l 0,8 c 8.1,15 15.7,34 16.4,55 1.3,36 -2.6,53 -11.9,75 -1.8,4 -3.3,8 -4.5,10 l 0,14 c 2.8,4 7.2,9 13.3,12 29.3,13 50.8,-7 50.8,-7 0,0 -30.2,-17 -28.1,-50 2.6,-39 -0.7,-53 -7.1,-71 z" />
<path fill="#93bbc7" d="m 1551,1008 c 3,11 3,27 -4,39 l 0,0 c -4,7 -10,12 -17,15 -3,-4 -6,-7 -9,-11 -1,-3 -1,-6 -1,-8 0,-5 -1,-10 -2,-14 -7,-42.8 -30,-68 -52,-87.1 -2,-1.4 -4,-2.9 -6,-4.3 14,8 31,17.4 45,24.6 17,9.3 40,24.8 46,45.8 z" />
<path fill="#93bbc7" d="m 1522,1064 c 0,0 -1,0 -1,0 l 0,0 c 0,-3 0,-6 0,-8 2,2 4,4 6,7 -1,0 -3,1 -5,1 z" />
<path fill="#93bbc7" d="m 1446,1440 c -3,-2 -7,-3 -10,-4 l -23,-23 c 12,6 24,11 33,14 81,27 148,39 165,8 l 0,3 c -7,34 -83,31 -165,2 z" />
<path fill="#93bbc7" d="m 1295,1136 c 5,14 0,26 -4,31 5,2 18,6 18,22 0,1 0,1 0,2 0,22 -17,28 -30,34 -4,1 -7,2 -10,4 l 0,0 c -11,6 -19,10 -25,15 l -33,-33 c 0,-4 1,-8 1,-12 4,-25 13,-37 21,-46 8,-8 21,-14 35,-7 8,4 15,15 15,16 l 1,0 -1,1 c 0,0 -1,6 -16,15 -6,4 -17,14 -23,21 -5,8 -8,17 -10,25 0,-1 0,-1 1,-2 0,-1 0,-1 0,-2 4,-8 8,-17 36,-37 10,-7 17,-16 17,-16 l 0,0 c 3,-5 9,-16 5,-30 -4,-11 -12,-20 -22,-25 -15,-6 -36,-9 -54,0 -23,11 -37,29 -41,64 l -5,-5 c 5,-32 20,-54 45,-65 20,-8 39,-7 58,2 11,6 18,16 21,28 z" />
<path fill="#93bbc7" d="m 1499,1499 c 0,0 0,0 0,0 l -13,-13 c 4,0 8,0 12,0 38,-1 112,-18 113,-45 l 0,4 c -7,34 -63,52 -112,54 z" />
<path fill="#93bbc7" d="m 1315,1314 c -10,-18 -17,-30 -31,-38 -3,-2 -8,-4 -13,-5 l -13,-13 c 12,-4 32,-9 48,-13 9,-2 29,-6 49,-6 19,0 35,4 46,10 3,3 16,12 16,28 0,4 0,7 -1,11 -6,18 -17,23 -21,24 5,7 11,16 17,25 12,16 23,32 33,44 22,27 45,43 92,55 67,18 73,-4 74,-4 l 0,1 c -12,20 -40,16 -75,9 -48,-10 -70,-31 -93,-59 l -1,0 c -9,-12 -21,-29 -32,-45 -12,-17 -23,-33 -32,-42 -5,-4 -11,-9 -20,-14 -9,-3 -18,-6 -27,-8 14,6 31,14 40,24 5,6 8,13 9,20 0,13 -8,24 -18,27 -6,2 -12,2 -17,0 l -28,-28 c -1,-1 -1,-2 -2,-3 z" />
<path fill="#93bbc7" d="m 1467,1457 c 46,11 100,10 100,10 l 0,0 c 0,0 -7,5 -38,10 -14,2 -33,3 -41,3 -3,0 -6,0 -9,-1 l -27,-27 c 5,2 10,4 15,5 z" />
<path fill="#93bbc7" d="m 1510,1510 c 3,0 5,-1 5,-1 0,0 -2,1 -4,2 l -1,-1 z" />
<path fill="#93bbc7" d="m 1386,814.5 c -2,-1 -4,-2 -7,-3.1 l 8,0 c 0,0.2 0,0.3 0,0.4 32,12.7 68,12.4 102,-0.4 l 7,0 c -36,15.6 -75,16.9 -110,3.1 z" />
<path fill="#93bbc7" d="m 1573,861.3 c -12,29.8 -36,44 -55,50.6 -21,7.6 -46,9.4 -65,4.6 -21,-5.1 -42,-16.8 -57,-26.4 14,11.3 27,20.8 39,29.2 1,0.6 2,1.2 3,1.8 10,6.2 44,25.9 68,38.6 18,9.5 41,25.5 47,48.3 2,5 6,25 -4,41 -4,7 -9,12 -17,15 3,4 6,7 9,11 24,29 32,59 34,81 2,-1 5,-2 9,-3 5,0 9,2 13,5 8,6 10,20 5,32 -9,20 -24,35 -34,46 -4,4 -7,7 -9,9 l -5,6 3,-7 c 0,0 5,-16 1,-28 -2,-10 -4,-13 -7,-19 -1,-2 -3,-4 -4,-8 -5,-9 -6,-18 -3,-24 1,-4 5,-7 10,-8 1,-1 2,-1 3,-1 5,0 9,1 10,1 l 0,1 1,0 c 0,4 2,10 2,23 0,3 1,23 -3,44 6,-15 6,-62 6,-64 -2,-22 -10,-53 -34,-84 -3,-4 -6,-8 -10,-12 -2,1 -4,1 -6,2 -1,0 -1,0 -2,0 0,8 1,17 1,28 0,10 0,21 0,33 1,26 2,47 6,89 5,47 21,82 21,82 l 3,7 -5,-5 c -2,-2 -39,-37 -50,-70 -9,-30 -7,-63 -7,-70 -4,-1 -17,-4 -26,-18 -11,-14 -3,-38 -3,-39 l 1,-5 2,5 c 0,0 3,13 13,18 5,2 10,2 17,-1 5,-2 21,-12 23,-53 -22,2 -74,-9 -114,-57 7,8 13,24 46,48 14,10 29,12 29,12 2,6 -9,29 -33,21 -20,-7 -28,-20 -36,-39 -5,-13 -9,-25 -15,-46 -3,-7.4 -5,-15.8 -9,-25.8 l -2,-7.7 5,6.4 c 0,0.2 9,11.6 32,25.1 7,3 28,12 36,14 14,3 25,3 31,8 5,3 8,8 8,14 1,5 -1,10 -4,13 -3,4 -7,6 -11,6 10,3 25,6 37,5 1,-4 1,-8 0,-13 -21,-23 -50,-48 -82,-75.1 -21,-16.7 -80,-69 -119,-152.5 -2,-4.6 -4,-8.9 -6,-13 l 7,0 c 2,5.8 5,11.9 9,19.3 l 0,0 c 42,81.6 88,122.6 109,140.1 31,26.4 61,55.2 82,77.2 0,-2 0,-3 0,-5 0,-5 -1,-9 -2,-14 -6,-41.4 -30,-66.2 -51,-84.9 -8,-6.6 -18,-13.4 -28,-20.5 -2,-1.2 -3,-1.8 -3,-1.9 l 0,-0.2 c -23,-16.5 -53,-35.1 -79,-65.9 -12,-14.9 -22,-26.6 -33,-44.2 l 6,0 c 9,14.6 19,28.3 29,40.3 24,26.5 60,52.8 98,62 35,8.6 96,-2.5 116,-53.5 7,-17.2 9,-33.7 8,-48.8 l 3,0 c 1,16.2 -1,33.1 -8,49.9 z m -52,202.7 0,0 c 0,0 1,0 1,0 2,0 4,-1 5,-1 -2,-3 -4,-5 -6,-7 0,2 0,5 0,8 z m -55,-122.1 c 22,19.1 45,44.3 52,87.1 1,4 2,9 2,14 0,2 0,5 1,8 3,4 6,7 9,11 7,-3 13,-8 17,-15 l 0,0 c 7,-12 7,-28 4,-39 -6,-21 -29,-36.5 -46,-45.8 -14,-7.2 -31,-16.6 -45,-24.6 2,1.4 4,2.9 6,4.3 z" />
<path fill="#93bbc7" d="m 1299,811.4 c 2,4.7 3,9.4 4,14 12,45.9 -13,87.1 -13,87.5 l -3,5.9 0,-6.8 c 1,-0.3 4,-23.9 2,-39.7 -4,-21.9 -6,-30.7 -16,-55.2 -1,-1.9 -1,-3.8 -2,-5.7 l 28,0 z" />
<path fill="#c1d2a8" d="m 1321,949.5 21,-53.3 c 14,33.6 19,73.1 23,120.8 4,53 36,80 36,80 l 6,5 -7,-3 c -1,0 -49,-16 -66,-59 -5,-12 -4,-30 -3,-37 -5,3 -15,8 -28,8 -2,1 -5,1 -7,0 -33,-2 -42,-31.5 -43,-31.8 l 0,-2.8 2,1 c 0,0 11,3.9 24,3.1 14,-0.8 32,-6.8 42,-31 z" />
<path fill="#93bbc7" d="m 1570,903.6 c 8,-9.2 12,-16.1 12,-16.1 0,0 1,15.2 -3,26.1 -8,18.3 -23,23.5 -23,23.5 0,0 5,1.7 13,15.8 10,19.1 -1,54.1 -1,54.1 l 0,0 c 0,0 1,-31.5 -22,-52.3 -16,-14.1 -86,-29.2 -86,-29.2 0,0 30,3.9 48,3.7 20,-0.2 45,-4.5 62,-25.6 z" />
<path fill="#c793b5" d="m 1405,840.3 c -18,-6.3 -34,-18.3 -46,-28.9 l 8,0 c 15,8.1 34,15.7 55,16.4 36,1.3 53,-2.6 75,-11.9 4,-1.8 8,-3.3 10,-4.5 l 14,0 c 4,2.8 9,7.2 12,13.3 13,29.3 -7,50.8 -7,50.8 0,0 -17,-30.2 -50,-28.1 -39,2.6 -53,-0.7 -71,-7.1 z" />
<path fill="#93bbc7" d="m 72.17,1008 c -3,11 -3.61,27 3.68,39 l 0,0 c 3.89,7 9.53,12 16.86,15 3.04,-4 6.23,-7 9.59,-11 0.2,-3 0.4,-6 0.7,-8 0.4,-5 0.9,-10 1.6,-14 6.8,-42.8 30.5,-68 52.7,-87.1 1.7,-1.4 3.5,-2.9 5.3,-4.3 -13.9,8 -30.7,17.4 -44.4,24.6 -17.7,9.3 -40.1,24.8 -46.05,45.8 z" />
<path fill="#93bbc7" d="m 100.6,1064 c 0.4,0 0.8,0 1.2,0 l 0,0 c 0.1,-3 0.2,-6 0.3,-8 -2.22,2 -4.38,4 -6.45,7 1.58,0 3.22,1 4.95,1 z" />
<path fill="#93bbc7" d="m 176.5,1440 c 3.6,-2 7.2,-3 10.8,-4 l 22.8,-23 c -12.6,6 -23.9,11 -33.1,14 -81.11,27 -148.49,39 -165.49,8 l 0.2,3 c 7.48,34 83.46,31 164.79,2 z" />
<path fill="#93bbc7" d="m 327.4,1136 c -4.4,14 0.8,26 4.3,31 -5.2,2 -17.6,6 -18.2,22 0,1 0,1 0,2 0.6,22 17.4,28 30.8,34 3.4,1 6.6,2 9.4,4 l 0.3,0 c 11.2,6 19.1,10 24.9,15 l 32.8,-33 c -0.2,-4 -0.5,-8 -1.1,-12 -3.3,-25 -12.3,-37 -20.8,-46 -7.7,-8 -20.9,-14 -34.8,-7 -8.3,4 -15.2,15 -15.5,16 l -0.3,0 0.2,1 c 0.1,0 1.8,6 16.5,15 6.1,4 17.3,14 22.8,21 5.5,8 8.6,17 10.4,25 -0.2,-1 -0.5,-1 -0.8,-2 -0.3,-1 -0.6,-1 -0.9,-2 -3.7,-8 -7.5,-17 -35.5,-37 -10,-7 -16.6,-16 -16.7,-16 l -0.3,0 c -3,-5 -9.1,-16 -4.7,-30 3.4,-11 11.3,-20 22,-25 14.4,-6 35.3,-9 54,0 22.6,11 36.4,29 40.9,64 l 4.8,-5 c -4.7,-32 -20.4,-54 -45.5,-65 -19.8,-8 -38.4,-7 -57.4,2 -11.4,6 -17.9,16 -21.6,28 z" />
<path fill="#93bbc7" d="m 123.9,1499 c 0,0 0.1,0 0.1,0 l 12.9,-13 c -3.9,0 -8,0 -12.2,0 -37.89,-1 -111.68,-18 -113.11,-45 l -0.16,4 c 7.49,34 63.17,52 112.47,54 z" />
<path fill="#93bbc7" d="m 307.8,1314 c 10.4,-18 17.3,-30 30.7,-38 3.5,-2 8.6,-4 13.8,-5 l 12.2,-13 c -11.9,-4 -31.2,-9 -48,-13 -8.7,-2 -28.8,-6 -48.4,-6 -19,0 -35.7,4 -45.9,10 -3.7,3 -16,12 -16.6,28 -0.1,4 0.4,7 1.4,11 5.4,18 17,23 21.2,24 -5.5,7 -11.6,16 -17.8,25 -11.2,16 -22.7,32 -32.3,44 -22.6,27 -45.5,43 -92.06,55 -67.43,18 -73.58,-4 -74,-4 l -0.18,1 c 11.56,20 40.24,16 74.89,9 47.95,-10 70.55,-31 93.65,-59 l 0,0 c 9.6,-12 21.2,-29 32.4,-45 12,-17 23.4,-33 31.7,-42 5,-4 11.7,-9 20.7,-14 8.2,-3 17.9,-6 26.9,-8 -14.7,6 -31.5,14 -40.4,24 -5.2,6 -8.2,13 -8.4,20 -0.5,13 7.1,24 17.7,27 6,2 11.6,2 17,0 l 27.7,-28 c 0.7,-1 1.5,-2 2.1,-3 z" />
<path fill="#93bbc7" d="m 156,1457 c -46.6,11 -100.5,10 -100.5,10 l 0,0 c 0.22,0 7.19,5 38.59,10 13.71,2 33.01,3 41.11,3 2.8,0 5.5,0 8.2,-1 l 27,-27 c -5,2 -9.9,4 -14.4,5 z" />
<path fill="#93bbc7" d="m 112.4,1510 c -2.7,0 -4.1,-1 -4.1,-1 0,0 1.2,1 3.3,2 l 0.8,-1 z" />
<path fill="#93bbc7" d="m 236.5,814.5 c 2.4,-1 4.8,-2 7.1,-3.1 l -7.3,0 c -0.3,0.2 -0.6,0.3 -0.9,0.4 -31.6,12.7 -67.4,12.4 -101.1,-0.4 l -7.7,0 c 36.3,15.6 75.5,16.9 109.9,3.1 z" />
<path fill="#93bbc7" d="m 49.96,861.3 c 11.71,29.8 36.08,44 54.44,50.6 21,7.6 46.1,9.4 65.6,4.6 21.2,-5.1 42.3,-16.8 57.2,-26.4 -13.9,11.3 -27.4,20.8 -39.5,29.2 -0.8,0.6 -1.7,1.2 -2.6,1.8 -10.4,6.2 -44.1,25.9 -68.3,38.6 -18.17,9.5 -41.18,25.5 -47.41,48.3 -1.54,5 -5.79,25 3.99,41 4.04,7 9.86,12 17.35,15 -3.21,4 -6.24,7 -9.09,11 -23.35,29 -31.5,59 -33.92,81 -1.92,-1 -5.05,-2 -8.99,-3 -4.49,0 -8.87,2 -13.04,5 -7.89,6 -10.1,20 -4.93,32 9,20 23.67,35 34.39,46 3.35,4 6.24,7 8.53,9 l 4.72,6 -2.24,-7 c 0,0 -5.23,-16 -1.79,-28 2.65,-10 4.41,-13 7.6,-19 1.18,-2 2.5,-4 4.14,-8 4.83,-9 6,-18 3.21,-24 -1.85,-4 -5.4,-7 -10.26,-8 -0.9,-1 -1.9,-1 -2.99,-1 -4.72,0 -9.61,1 -9.82,1 l -0.76,1 -0.22,0 c -0.91,4 -2.23,10 -2.44,23 0,3 -1.14,23 3.03,44 -6.47,-15 -5.65,-62 -5.68,-64 1.76,-22 9.22,-53 33.72,-84 3.02,-4 6.24,-8 9.67,-12 2.02,1 4.15,1 6.39,2 0.54,0 1.14,0 1.74,0 -0.2,8 -0.4,17 -0.6,28 -0.2,10 -0.4,21 -0.6,33 -0.65,26 -1.74,47 -6.03,89 -4.83,47 -20.75,82 -20.91,82 l -3.06,7 5.36,-5 c 1.59,-2 39.14,-37 49.84,-70 9.4,-30 7.5,-63 7,-70 4.3,-1 17,-4 26.7,-18 10,-14 2.9,-38 2.6,-39 l -1.5,-5 -1.3,5 c 0,0 -3.6,13 -13,18 -4.9,2 -10.6,2 -16.9,-1 -5.5,-2 -21.6,-12 -23.7,-53 22,2 73.8,-9 113.8,-57 -6.5,8 -12.4,24 -45.5,48 -13.7,10 -29.5,12 -29.5,12 -1.9,6 9.6,29 33.9,21 19.9,-7 27.4,-20 35.3,-39 5.5,-13 9.3,-25 15.7,-46 2.4,-7.4 5,-15.8 8.2,-25.8 l 2.4,-7.7 -4.9,6.4 c -0.2,0.2 -8.7,11.6 -32.1,25.1 -6.8,3 -28,12 -35.6,14 -14.7,3 -25.9,3 -31.9,8 -4.6,3 -7.4,8 -7.8,14 -0.5,5 1,10 4,13 3.3,4 6.8,6 11.3,6 -10.5,3 -25.2,6 -37.4,5 -0.1,-4 -0.1,-8 0,-13 21.4,-23 49.9,-48 82.7,-75.1 20.3,-16.7 79.5,-69 118.9,-152.5 2.1,-4.6 4.1,-8.9 6,-13 l -6.9,0 c -2.7,5.8 -5.8,11.9 -9.7,19.3 l 0,0 c -42,81.6 -87.5,122.6 -108.4,140.1 -31.4,26.4 -61.2,55.2 -82.4,77.2 0,-2 0.1,-3 0.2,-5 0.3,-5 0.9,-9 1.6,-14 6.7,-41.4 29.9,-66.2 51.7,-84.9 7.8,-6.6 17.3,-13.4 27.5,-20.5 2,-1.2 3.1,-1.8 3.2,-1.9 l -0.2,-0.2 c 23.6,-16.5 52.8,-35.1 78.9,-65.9 12.5,-14.9 22.7,-26.6 33.1,-44.2 l -5.9,0 c -8.9,14.6 -18.8,28.3 -29.4,40.3 -23.2,26.5 -59.1,52.8 -97.1,62 C 134.1,922.3 72.7,911.2 52.65,860.2 45.9,843 43.84,826.5 45.34,811.4 l -3.02,0 c -1.5,16.2 1.04,33.1 7.64,49.9 z m 51.84,202.7 0,0 c -0.4,0 -0.8,0 -1.2,0 -1.73,0 -3.37,-1 -4.95,-1 2.07,-3 4.23,-5 6.45,-7 -0.1,2 -0.2,5 -0.3,8 z m 55.5,-122.1 c -22.2,19.1 -45.9,44.3 -52.7,87.1 -0.7,4 -1.2,9 -1.6,14 -0.3,2 -0.5,5 -0.7,8 -3.34,4 -6.53,7 -9.57,11 -7.33,-3 -12.97,-8 -16.86,-15 l 0,0 c -7.29,-12 -6.68,-28 -3.68,-39 5.95,-21 28.31,-36.5 46.01,-45.8 13.7,-7.2 30.5,-16.6 44.4,-24.6 -1.8,1.4 -3.6,2.9 -5.3,4.3 z" />
<path fill="#93bbc7" d="m 323.5,811.4 c -1.5,4.7 -2.9,9.4 -4.1,14 -11.9,45.9 13.1,87.1 13.3,87.5 l 3.7,5.9 -1,-6.8 c -0.1,-0.3 -3.4,-23.9 -1.1,-39.7 3.2,-21.9 5.6,-30.7 15.4,-55.2 0.8,-1.9 1.6,-3.8 2.5,-5.7 l -28.7,0 z" />
<path fill="#c1d2a8" d="m 301.8,949.5 -20.5,-53.3 c -14.8,33.6 -19.1,73.1 -23.1,120.8 -4.5,53 -36.2,80 -36.6,80 l -6,5 7.4,-3 c 0.5,0 48.6,-16 66,-59 5.1,-12 4,-30 3.3,-37 4.6,3 15,8 27.5,8 2.4,1 4.8,1 7.1,0 32.6,-2 42.4,-31.5 42.5,-31.8 l 0.9,-2.8 -2.8,1 c -0.1,0 -10.9,3.9 -24,3.1 -13.6,-0.8 -31.8,-6.8 -41.7,-31 z" />
<path fill="#93bbc7" d="M 52.57,903.6 C 45,894.4 40.66,887.5 40.66,887.5 c 0,0 -1.26,15.2 3.6,26.1 8.1,18.3 23.06,23.5 23.06,23.5 0,0 -5.89,1.7 -13.47,15.8 C 43.52,972 55,1007 55,1007 l 0,0 c 0,0 -1.19,-31.5 21.72,-52.3 15.68,-14.1 86.18,-29.2 86.18,-29.2 0,0 -29.6,3.9 -48.3,3.7 C 94.8,929 69.82,924.7 52.57,903.6 Z" />
<path fill="#c793b5" d="M 218.2,840.3 C 235.8,834 252.1,822 264,811.4 l -8.4,0 c -14.5,8.1 -33.7,15.7 -55,16.4 -35.4,1.3 -52.7,-2.6 -74.8,-11.9 -4.3,-1.8 -7.6,-3.3 -10,-4.5 l -13.8,0 c -4.04,2.8 -8.93,7.2 -11.67,13.3 -13.06,29.3 6.65,50.8 6.65,50.8 0,0 16.62,-30.2 49.42,-28.1 39.4,2.6 53.5,-0.7 71.8,-7.1 z" />
<path fill="#93bbc7" d="m 614.4,1551 c -10.8,3 -26.7,3 -38.9,-4 l 0,0 c -6.5,-4 -11.2,-10 -14.2,-17 3.4,-3 6.9,-6 10.4,-9 3.6,-1 6.3,-1 8.2,-1 4.9,0 9.7,-1 14.4,-2 42.4,-7 67.6,-30 86.7,-52 1.4,-2 2.8,-4 4.3,-6 -8,14 -17.5,31 -24.7,45 -9.2,17 -24.8,40 -46.2,46 z" />
<path fill="#93bbc7" d="m 558.8,1522 c -0.1,0 -0.1,-1 -0.2,-1 l 0,0 c 3.2,0 6.1,0 8.7,0 -2.4,2 -4.8,4 -7.1,6 -0.5,-1 -1,-3 -1.4,-5 z" />
<path fill="#93bbc7" d="m 183.3,1446 c 1.3,-3 2.6,-7 4,-10 l 22.8,-23 c -6,12 -10.8,24 -13.8,33 -27.1,81 -39,148 -8.2,165 l -2.9,0 c -34.6,-7 -31.1,-83 -1.9,-165 z" />
<path fill="#93bbc7" d="m 486.9,1295 c -13.9,5 -25.6,0 -31.2,-4 -1.4,5 -6.3,18 -21.8,18 -0.6,0 -1.3,0 -2,0 -22,0 -28.5,-17 -33.8,-30 -1.3,-4 -2.5,-7 -3.9,-10 l -0.2,0 c -5.7,-11 -9.8,-19 -15.1,-25 l 32.8,-33 c 4.2,0 8.4,1 12.6,1 25,4 37,13 45.5,21 7.8,8 13.7,21 7.1,35 -3.9,8 -15.2,15 -15.6,15 l -0.5,1 -0.6,-1 c -0.6,0 -6.3,-1 -15.7,-16 -3.9,-6 -13.3,-17 -20.9,-23 -7.8,-5 -16.9,-8 -24.5,-10 0.5,0 1.1,0 1.7,1 0.7,0 1.3,0 2,0 8.2,4 16.7,8 36.8,36 7.2,10 15.9,17 16,17 l 0.5,0 c 4.5,3 16.2,9 30,5 10.8,-4 19.5,-12 24.5,-22 6.6,-15 9.3,-36 0.4,-54 -10.8,-23 -29.2,-37 -63.9,-41 l 4.8,-5 c 32.4,5 53.6,20 64.5,45 8.7,20 7.2,39 -1.7,58 -5.4,11 -16.1,18 -27.8,21 z" />
<path fill="#93bbc7" d="m 124,1499 c 0,0 0,0 0,0 l 12.9,-13 c 0.1,4 0.1,8 0.3,12 0.9,38 18.1,112 44.9,113 l -4.4,0 c -33.4,-7 -51.4,-63 -53.7,-112 z" />
<path fill="#93bbc7" d="m 309.3,1315 c 17.5,-10 29.1,-17 37.3,-31 2.2,-3 4.1,-8 5.7,-13 l 12.2,-13 c 3.9,12 9.8,32 13.6,48 2,9 5.4,29 5.7,49 0.2,19 -3.6,35 -10.4,46 -2.5,3 -11.9,16 -27.8,16 -3.4,0 -6.9,0 -10.4,-1 -18.4,-6 -23,-17 -24.1,-21 -7.6,5 -16.2,11 -25.1,17 -15.9,12 -32.4,23 -43.9,33 -27.4,22 -42.9,45 -55.2,92 -17.8,67 4.1,73 4.1,74 l -1.6,0 c -19.2,-12 -15.4,-40 -8,-75 9.9,-48 30.8,-70 58.7,-93 l 0.2,-1 c 11.6,-9 28.1,-21 44.1,-32 17.1,-12 33.4,-23 42.6,-32 4.4,-5 9.1,-11 13.6,-20 3.3,-9 6.2,-18 8.5,-27 -6.1,14 -14.6,31 -24.2,40 -5.7,5 -12.6,8 -20,9 -12.6,0 -24.2,-8 -27.1,-18 -1.6,-6 -1.5,-12 0.2,-17 l 27.7,-28 c 1.2,-1 2.4,-1 3.6,-2 z" />
<path fill="#93bbc7" d="m 165.9,1467 c -11.4,46 -10.3,100 -10.3,100 l -0.2,0 c 0,0 -4.4,-7 -9.1,-38 -2.1,-14 -3.3,-33 -3.1,-41 0,-3 0.1,-6 0.2,-9 l 27,-27 c -1.8,5 -3.4,10 -4.5,15 z" />
<path fill="#93bbc7" d="m 112.4,1510 c 0.7,3 1.1,5 1.1,5 0,0 -0.7,-2 -1.9,-4 l 0.8,-1 z" />
<path fill="#93bbc7" d="m 808.4,1386 c 0.9,-2 2,-4 3,-7 l 0,8 c -0.1,0 -0.2,0 -0.3,0 -12.7,32 -12.4,68 0.3,102 l 0,7 c -15.6,-36 -16.8,-75 -3,-110 z" />
<path fill="#93bbc7" d="m 761.6,1573 c -29.8,-12 -44,-36 -50.7,-55 -7.6,-21 -9.3,-46 -4.6,-65 5.2,-21 16.9,-42 26.5,-57 -11.4,14 -20.8,27 -29.3,39 -0.6,1 -1.2,2 -1.8,3 -6.1,10 -25.9,44 -38.5,68 -9.5,18 -25.6,41 -48.1,47 -5.5,2 -24.8,6 -41.1,-4 -6.7,-4 -11.8,-9 -15,-17 -3.7,3 -7.4,6 -11,9 -29.5,24 -59.4,32 -81.4,34 1.2,2 2.7,5 2.9,9 0.3,5 -1.2,9 -4.3,13 -6.1,8 -20.3,10 -31.9,5 -20.1,-9 -35.4,-24 -46.7,-34 -3.5,-4 -6.5,-7 -9.2,-9 l -5.6,-5 7,3 c 0.1,0 16.5,5 28.4,1 9.3,-2 12.5,-4 18.4,-7 2.1,-1 4.6,-3 7.8,-4 9.4,-5 18.4,-6 24.7,-3 4.1,1 6.9,5 8.2,10 0.2,1 0.4,2 0.5,3 0.2,5 -1.2,9 -1.3,10 l -0.2,0 -0.7,1 c -3.3,0 -9.6,2 -22.5,2 -3,0 -23.4,1 -44.7,-3 15.6,6 62.1,6 64.5,6 22,-2 53.4,-10 84.3,-34 3.8,-3 7.7,-6 11.6,-10 -0.7,-2 -1.3,-4 -1.8,-6 -0.1,-1 -0.2,-1 -0.3,-2 -7.8,0 -17.1,1 -27.9,1 -9.7,0 -20.6,0 -32.6,0 -26.6,1 -47.7,2 -89.3,6 -46.8,5 -81.9,21 -82.2,21 l -6.7,3 5,-5 c 1.5,-2 36.8,-39 70,-50 29.6,-9 62.8,-7 69.9,-7 0.7,-4 3.8,-17 17.5,-26 14.2,-11 38.3,-3 39.4,-3 l 4.8,1 -4.9,2 c -0.1,0 -12.6,3 -17.4,13 -2.4,5 -2.4,10 0.1,17 2.2,5 12.2,21 53.7,23 -2,-22 8.6,-74 56.5,-114 -7.8,7 -23.6,13 -48.1,46 -10.1,14 -12,29 -12,29 -5.2,2 -28.8,-9 -20.3,-33 6.9,-20 19.9,-28 38.8,-36 12.9,-5 25.3,-9 45.8,-15 7.4,-3 15.8,-5 25.9,-9 l 7.6,-2 -6.3,5 c -0.2,0 -11.6,9 -24.7,32 -3.8,7 -12.4,28 -14.1,36 -3.1,14 -3.4,25 -8.2,31 -3.6,5 -8.6,8 -14.1,8 -5,1 -9.8,-1 -13.2,-4 -3.6,-3 -5.5,-7 -5.9,-11 -2.9,10 -6,25 -4.7,37 4,1 8.2,1 12.8,0 22.5,-21 48.2,-50 75.1,-82 16.6,-21 69,-80 152.5,-119 4.5,-2 8.8,-4 12.9,-6 l 0,7 c -5.7,2 -11.8,5 -19.2,9 l 0,0 c -81.7,42 -122.7,88 -140.2,109 -26.4,31 -54.8,61 -76.7,82 1.4,0 2.8,0 4.3,0 4.9,0 9.6,-1 14.2,-2 41.5,-6 66.2,-30 84.9,-51 6.7,-8 13.5,-18 20.6,-28 1.1,-2 1.8,-3 1.8,-3 l 0.3,0 c 16.5,-23 35.1,-53 65.9,-79 14.9,-12 26.6,-22 44.1,-33 l 0,6 c -14.5,9 -28.2,19 -40.3,29 -26.5,24 -52.7,60 -62,98 -8.5,35 2.5,96 53.6,116 17.1,7 33.6,9 48.7,8 l 0,3 c -16.2,1 -33,-1 -49.8,-8 z m -203,-52 0,0 c 0.1,0 0.1,1 0.2,1 0.4,2 0.9,4 1.4,5 2.3,-2 4.7,-4 7.1,-6 -2.6,0 -5.5,0 -8.7,0 z M 681,1466 c -19.1,22 -44.3,45 -86.7,52 -4.7,1 -9.5,2 -14.4,2 -1.9,0 -4.6,0 -8.2,1 -3.5,3 -7,6 -10.4,9 3,7 7.7,13 14.2,17 l 0,0 c 12.2,7 28.1,7 38.9,4 21.4,-6 37,-29 46.2,-46 7.2,-14 16.7,-31 24.7,-45 -1.5,2 -2.9,4 -4.3,6 z" />
<path fill="#93bbc7" d="m 811.4,1299 c -4.7,2 -9.3,3 -13.9,4 -46,12 -87.1,-13 -87.6,-13 l -5.9,-3 6.9,0 c 0.2,1 23.9,4 39.7,2 21.9,-4 30.6,-6 55.2,-16 1.9,-1 3.8,-1 5.6,-2 l 0,28 z" />
<path fill="#c1d2a8" d="m 673.3,1321 53.3,21 c -33.5,14 -73,19 -121.2,23 -52.3,4 -79.1,36 -79.4,36 l -4.9,6 2.4,-7 c 0.2,-1 16.8,-49 59,-66 12,-5 30.1,-4 37.1,-3 -2.5,-5 -7.4,-15 -8.2,-28 -0.1,-2 -0.1,-5 0.1,-7 2.5,-33 31.9,-42 32.2,-43 l 2.8,0 -1,2 c -0.1,0 -3.9,11 -3.2,24 0.8,14 6.9,32 31,42 z" />
<path fill="#93bbc7" d="m 719.2,1570 c 9.2,8 16.2,12 16.2,12 0,0 -15.2,1 -26.2,-3 -18.2,-8 -23.4,-23 -23.4,-23 0,0 -1.8,5 -15.9,13 -19.1,10 -53.9,-1 -53.9,-1 l 0,0 c 0,0 31.4,1 52.1,-22 14.2,-16 29.3,-86 29.3,-86 0,0 -4,30 -3.8,48 0.2,20 4.6,45 25.6,62 z" />
<path fill="#c793b5" d="m 782.6,1405 c 6.3,-18 18.3,-34 28.8,-46 l 0,8 c -8.1,15 -15.7,34 -16.4,55 -1.2,36 2.6,53 11.9,75 1.8,4 3.3,8 4.5,10 l 0,14 c -2.8,4 -7.1,9 -13.3,12 -29.2,13 -50.7,-7 -50.7,-7 0,0 30.2,-17 28.1,-50 -2.6,-39 0.6,-53 7.1,-71 z" />
<path fill="#93bbc7" d="m 614.4,72.17 c -10.8,-3 -26.7,-3.61 -38.9,3.68 l 0,0 c -6.5,3.89 -11.2,9.53 -14.2,16.86 3.4,3.04 6.9,6.23 10.4,9.59 3.6,0.2 6.3,0.4 8.2,0.7 4.9,0.4 9.7,0.9 14.4,1.6 42.4,6.8 67.6,30.5 86.7,52.7 1.4,1.7 2.8,3.5 4.3,5.3 -8,-13.9 -17.5,-30.7 -24.7,-44.4 -9.2,-17.7 -24.8,-40.1 -46.2,-46.05 z" />
<path fill="#93bbc7" d="m 558.8,100.6 c -0.1,0.4 -0.1,0.8 -0.2,1.2 l 0,0 c 3.2,0.1 6.1,0.2 8.7,0.3 -2.4,-2.22 -4.8,-4.38 -7.1,-6.45 -0.5,1.58 -1,3.22 -1.4,4.95 z" />
<path fill="#93bbc7" d="m 183.3,176.5 c 1.3,3.6 2.6,7.2 4,10.8 l 22.8,22.8 C 204.1,197.5 199.3,186.2 196.3,177 169.2,95.89 157.3,28.51 188.1,11.51 l -2.9,0.2 c -34.6,7.48 -31.1,83.46 -1.9,164.79 z" />
<path fill="#93bbc7" d="m 486.9,327.4 c -13.9,-4.4 -25.6,0.8 -31.2,4.3 -1.4,-5.2 -6.3,-17.6 -21.8,-18.2 -0.6,0 -1.3,0 -2,0 -22,0.6 -28.5,17.4 -33.8,30.8 -1.3,3.4 -2.5,6.6 -3.9,9.4 L 394,354 c -5.7,11.2 -9.8,19.1 -15.1,24.9 l 32.8,32.8 c 4.2,-0.2 8.4,-0.5 12.6,-1.1 25,-3.3 37,-12.3 45.5,-20.8 7.8,-7.7 13.7,-20.9 7.1,-34.8 -3.9,-8.3 -15.2,-15.2 -15.6,-15.5 l -0.5,-0.3 -0.6,0.2 c -0.6,0.1 -6.3,1.8 -15.7,16.5 -3.9,6.1 -13.3,17.3 -20.9,22.8 -7.8,5.5 -16.9,8.6 -24.5,10.4 0.5,-0.2 1.1,-0.5 1.7,-0.8 0.7,-0.3 1.3,-0.6 2,-0.9 8.2,-3.7 16.7,-7.5 36.8,-35.5 7.2,-10 15.9,-16.6 16,-16.7 l 0.5,-0.3 c 4.5,-3 16.2,-9.1 30,-4.7 10.8,3.4 19.5,11.3 24.5,22 6.6,14.4 9.3,35.3 0.4,54 -10.8,22.6 -29.2,36.4 -63.9,40.9 l 4.8,4.8 c 32.4,-4.7 53.6,-20.4 64.5,-45.5 8.7,-19.8 7.2,-38.4 -1.7,-57.4 -5.4,-11.4 -16.1,-17.9 -27.8,-21.6 z" />
<path fill="#93bbc7" d="m 124,123.9 c 0,0 0,0.1 0,0.1 l 12.9,12.9 c 0.1,-3.9 0.1,-8 0.3,-12.2 0.9,-37.89 18.1,-111.68 44.9,-113.11 l -4.4,-0.16 C 144.3,18.92 126.3,74.6 124,123.9 Z" />
<path fill="#93bbc7" d="m 309.3,307.8 c 17.5,10.4 29.1,17.3 37.3,30.7 2.2,3.5 4.1,8.6 5.7,13.8 l 12.2,12.2 c 3.9,-11.9 9.8,-31.2 13.6,-48 2,-8.7 5.4,-28.8 5.7,-48.4 0.2,-19 -3.6,-35.7 -10.4,-45.9 -2.5,-3.7 -11.9,-16 -27.8,-16.6 -3.4,-0.1 -6.9,0.4 -10.4,1.4 -18.4,5.4 -23,17 -24.1,21.2 -7.6,-5.5 -16.2,-11.6 -25.1,-17.8 -15.9,-11.2 -32.4,-22.7 -43.9,-32.3 -27.4,-22.6 -42.9,-45.5 -55.2,-92.06 -17.8,-67.43 4.1,-73.58 4.1,-74 l -1.6,-0.18 c -19.2,11.56 -15.4,40.24 -8,74.89 9.9,47.95 30.8,70.55 58.7,93.65 l 0.2,0 c 11.6,9.6 28.1,21.2 44.1,32.4 17.1,12 33.4,23.4 42.6,31.7 4.4,5 9.1,11.7 13.6,20.7 3.3,8.2 6.2,17.9 8.5,26.9 -6.1,-14.7 -14.6,-31.5 -24.2,-40.4 -5.7,-5.2 -12.6,-8.2 -20,-8.4 -12.6,-0.5 -24.2,7.1 -27.1,17.7 -1.6,6 -1.5,11.6 0.2,17 l 27.7,27.7 c 1.2,0.7 2.4,1.5 3.6,2.1 z" />
<path fill="#93bbc7" d="M 165.9,156 C 154.5,109.4 155.6,55.5 155.6,55.5 l -0.2,0 c 0,0.22 -4.4,7.19 -9.1,38.59 -2.1,13.71 -3.3,33.01 -3.1,41.11 0,2.8 0.1,5.5 0.2,8.2 l 27,27 c -1.8,-5 -3.4,-9.9 -4.5,-14.4 z" />
<path fill="#93bbc7" d="m 112.4,112.4 c 0.7,-2.7 1.1,-4.1 1.1,-4.1 0,0 -0.7,1.2 -1.9,3.3 l 0.8,0.8 z" />
<path fill="#93bbc7" d="M 495.7,479.1" />
<path fill="#93bbc7" d="m 808.4,236.5 c 0.9,2.4 2,4.8 3,7.1 l 0,-7.3 c -0.1,-0.3 -0.2,-0.6 -0.3,-0.9 -12.7,-31.6 -12.4,-67.4 0.3,-101.1 l 0,-7.7 c -15.6,36.3 -16.8,75.5 -3,109.9 z" />
<path fill="#93bbc7" d="m 761.6,49.96 c -29.8,11.71 -44,36.08 -50.7,54.44 -7.6,21 -9.3,46.1 -4.6,65.6 5.2,21.2 16.9,42.3 26.5,57.2 -11.4,-13.9 -20.8,-27.4 -29.3,-39.5 -0.6,-0.8 -1.2,-1.7 -1.8,-2.6 -6.1,-10.4 -25.9,-44.1 -38.5,-68.3 -9.5,-18.17 -25.6,-41.18 -48.1,-47.41 -5.5,-1.54 -24.8,-5.79 -41.1,3.99 -6.7,4.04 -11.8,9.86 -15,17.35 -3.7,-3.21 -7.4,-6.24 -11,-9.09 -29.5,-23.35 -59.4,-31.5 -81.4,-33.92 1.2,-1.92 2.7,-5.05 2.9,-8.99 0.3,-4.49 -1.2,-8.87 -4.3,-13.04 -6.1,-7.89 -20.3,-10.1 -31.9,-4.93 -20.1,9 -35.4,23.67 -46.7,34.39 -3.5,3.35 -6.5,6.24 -9.2,8.53 l -5.6,4.72 7,-2.24 c 0.1,0 16.5,-5.23 28.4,-1.79 9.3,2.65 12.5,4.41 18.4,7.6 2.1,1.18 4.6,2.5 7.8,4.14 9.4,4.83 18.4,6 24.7,3.21 4.1,-1.85 6.9,-5.4 8.2,-10.26 0.2,-0.9 0.4,-1.9 0.5,-2.99 0.2,-4.72 -1.2,-9.61 -1.3,-9.82 l -0.2,-0.76 -0.7,-0.22 c -3.3,-0.91 -9.6,-2.23 -22.5,-2.44 -3,0 -23.4,-1.14 -44.7,3.03 15.6,-6.47 62.1,-5.65 64.5,-5.68 22,1.76 53.4,9.22 84.3,33.72 3.8,3.02 7.7,6.24 11.6,9.67 -0.7,2.02 -1.3,4.15 -1.8,6.39 -0.1,0.54 -0.2,1.14 -0.3,1.74 -7.8,-0.2 -17.1,-0.4 -27.9,-0.6 -9.7,-0.2 -20.6,-0.4 -32.6,-0.6 C 468.6,99.85 447.5,98.76 405.9,94.47 359.1,89.64 324,73.72 323.7,73.56 l -6.7,-3.06 5,5.36 c 1.5,1.59 36.8,39.14 70,49.84 29.6,9.4 62.8,7.5 69.9,7 0.7,4.3 3.8,17 17.5,26.7 14.2,10 38.3,2.9 39.4,2.6 l 4.8,-1.5 -4.9,-1.3 c -0.1,0 -12.6,-3.6 -17.4,-13 -2.4,-4.9 -2.4,-10.6 0.1,-16.9 2.2,-5.5 12.2,-21.6 53.7,-23.7 -2,22 8.6,73.8 56.5,113.8 -7.8,-6.5 -23.6,-12.4 -48.1,-45.5 -10.1,-13.7 -12,-29.5 -12,-29.5 -5.2,-1.9 -28.8,9.6 -20.3,33.9 6.9,19.9 19.9,27.4 38.8,35.3 12.9,5.5 25.3,9.3 45.8,15.7 7.4,2.4 15.8,5 25.9,8.2 l 7.6,2.4 -6.3,-4.9 c -0.2,-0.2 -11.6,-8.7 -24.7,-32.1 -3.8,-6.8 -12.4,-28 -14.1,-35.6 -3.1,-14.7 -3.4,-25.9 -8.2,-31.9 -3.6,-4.6 -8.6,-7.4 -14.1,-7.8 -5,-0.5 -9.8,1 -13.2,4 -3.6,3.3 -5.5,6.8 -5.9,11.3 -2.9,-10.5 -6,-25.2 -4.7,-37.4 4,-0.1 8.2,-0.1 12.8,0 22.5,21.4 48.2,49.9 75.1,82.7 16.6,20.3 69,79.5 152.5,118.9 4.5,2.1 8.8,4.1 12.9,6 l 0,-6.9 c -5.7,-2.7 -11.8,-5.8 -19.2,-9.7 l 0,0 C 710.5,254.5 669.5,209 652,188.1 c -26.4,-31.4 -54.8,-61.2 -76.7,-82.4 1.4,0 2.8,0.1 4.3,0.2 4.9,0.3 9.6,0.9 14.2,1.6 41.5,6.7 66.2,29.9 84.9,51.7 6.7,7.8 13.5,17.3 20.6,27.5 1.1,2 1.8,3.1 1.8,3.2 l 0.3,-0.2 c 16.5,23.6 35.1,52.8 65.9,78.9 14.9,12.5 26.6,22.7 44.1,33.1 l 0,-5.9 c -14.5,-8.9 -28.2,-18.8 -40.3,-29.4 -26.5,-23.2 -52.7,-59.1 -62,-97.1 -8.5,-35.2 2.5,-96.6 53.6,-116.65 17.1,-6.75 33.6,-8.81 48.7,-7.31 l 0,-3.02 c -16.2,-1.5 -33,1.04 -49.8,7.64 z m -203,51.84 0,0 c 0.1,-0.4 0.1,-0.8 0.2,-1.2 0.4,-1.73 0.9,-3.37 1.4,-4.95 2.3,2.07 4.7,4.23 7.1,6.45 -2.6,-0.1 -5.5,-0.2 -8.7,-0.3 z M 681,157.3 c -19.1,-22.2 -44.3,-45.9 -86.7,-52.7 -4.7,-0.7 -9.5,-1.2 -14.4,-1.6 -1.9,-0.3 -4.6,-0.5 -8.2,-0.7 -3.5,-3.34 -7,-6.53 -10.4,-9.57 3,-7.33 7.7,-12.97 14.2,-16.86 l 0,0 c 12.2,-7.29 28.1,-6.68 38.9,-3.68 21.4,5.95 37,28.31 46.2,46.01 7.2,13.7 16.7,30.5 24.7,44.4 -1.5,-1.8 -2.9,-3.6 -4.3,-5.3 z" />
<path fill="#93bbc7" d="m 811.4,323.5 c -4.7,-1.5 -9.3,-2.9 -13.9,-4.1 -46,-11.9 -87.1,13.1 -87.6,13.3 l -5.9,3.7 6.9,-1 c 0.2,-0.1 23.9,-3.4 39.7,-1.1 21.9,3.2 30.6,5.6 55.2,15.4 1.9,0.8 3.8,1.6 5.6,2.5 l 0,-28.7 z" />
<path fill="#c1d2a8" d="m 673.3,301.8 53.3,-20.5 C 693.1,266.5 653.6,262.2 605.4,258.2 553.1,253.7 526.3,222 526,221.6 l -4.9,-6 2.4,7.4 c 0.2,0.5 16.8,48.6 59,66 12,5.1 30.1,4 37.1,3.3 -2.5,4.6 -7.4,15 -8.2,27.5 -0.1,2.4 -0.1,4.8 0.1,7.1 2.5,32.6 31.9,42.4 32.2,42.5 l 2.8,0.9 -1,-2.8 c -0.1,-0.1 -3.9,-10.9 -3.2,-24 0.8,-13.6 6.9,-31.8 31,-41.7 z" />
<path fill="#93bbc7" d="m 719.2,52.57 c 9.2,-7.57 16.2,-11.91 16.2,-11.91 0,0 -15.2,-1.26 -26.2,3.6 -18.2,8.1 -23.4,23.06 -23.4,23.06 0,0 -1.8,-5.89 -15.9,-13.47 C 650.8,43.52 616,55 616,55 l 0,0 c 0,0 31.4,-1.19 52.1,21.72 14.2,15.68 29.3,86.18 29.3,86.18 0,0 -4,-29.6 -3.8,-48.3 0.2,-19.81 4.6,-44.79 25.6,-62.04 z" />
<path fill="#aa5b8f" d="m 782.6,218.2 c 6.3,17.6 18.3,33.9 28.8,45.8 l 0,-8.4 c -8.1,-14.5 -15.7,-33.7 -16.4,-55 -1.2,-35.4 2.6,-52.7 11.9,-74.8 1.8,-4.3 3.3,-7.6 4.5,-10 l 0,-13.8 c -2.8,-4.04 -7.1,-8.93 -13.3,-11.67 -29.2,-13.06 -50.7,6.65 -50.7,6.65 0,0 30.2,16.62 28.1,49.42 -2.6,39.4 0.6,53.5 7.1,71.8 z" />
<path fill="#93bbc7" d="m 72.17,614.4 c -3,-10.8 -3.61,-26.7 3.68,-38.9 l 0,0 c 3.89,-6.5 9.53,-11.2 16.86,-14.2 3.04,3.4 6.23,6.9 9.59,10.4 0.2,3.6 0.4,6.3 0.7,8.2 0.4,4.9 0.9,9.7 1.6,14.4 6.8,42.4 30.5,67.6 52.7,86.7 1.7,1.4 3.5,2.8 5.3,4.3 -13.9,-8 -30.7,-17.5 -44.4,-24.7 -17.7,-9.2 -40.1,-24.8 -46.05,-46.2 z" />
<path fill="#93bbc7" d="m 100.6,558.8 c 0.4,-0.1 0.8,-0.1 1.2,-0.2 l 0,0 c 0.1,3.2 0.2,6.1 0.3,8.7 -2.22,-2.4 -4.38,-4.8 -6.45,-7.1 1.58,-0.5 3.22,-1 4.95,-1.4 z" />
<path fill="#93bbc7" d="m 176.5,183.3 c 3.6,1.3 7.2,2.6 10.8,4 l 22.8,22.8 C 197.5,204.1 186.2,199.3 177,196.3 95.89,169.2 28.51,157.3 11.51,188.1 l 0.2,-2.9 c 7.48,-34.6 83.46,-31.1 164.79,-1.9 z" />
<path fill="#93bbc7" d="m 327.4,486.9 c -4.4,-13.9 0.8,-25.6 4.3,-31.2 -5.2,-1.4 -17.6,-6.3 -18.2,-21.8 0,-0.6 0,-1.3 0,-2 0.6,-22 17.4,-28.5 30.8,-33.8 3.4,-1.3 6.6,-2.5 9.4,-3.9 L 354,394 c 11.2,-5.7 19.1,-9.8 24.9,-15.1 l 32.8,32.8 c -0.2,4.2 -0.5,8.4 -1.1,12.6 -3.3,25 -12.3,37 -20.8,45.5 -7.7,7.8 -20.9,13.7 -34.8,7.1 -8.3,-3.9 -15.2,-15.2 -15.5,-15.6 l -0.3,-0.5 0.2,-0.6 c 0.1,-0.6 1.8,-6.3 16.5,-15.7 6.1,-3.9 17.3,-13.3 22.8,-20.9 5.5,-7.8 8.6,-16.9 10.4,-24.5 -0.2,0.5 -0.5,1.1 -0.8,1.7 -0.3,0.7 -0.6,1.3 -0.9,2 -3.7,8.2 -7.5,16.7 -35.5,36.8 -10,7.2 -16.6,15.9 -16.7,16 l -0.3,0.5 c -3,4.5 -9.1,16.2 -4.7,30 3.4,10.8 11.3,19.5 22,24.5 14.4,6.6 35.3,9.3 54,0.4 22.6,-10.8 36.4,-29.2 40.9,-63.9 l 4.8,4.8 c -4.7,32.4 -20.4,53.6 -45.5,64.5 -19.8,8.7 -38.4,7.2 -57.4,-1.7 -11.4,-5.4 -17.9,-16.1 -21.6,-27.8 z" />
<path fill="#93bbc7" d="m 123.9,124 c 0,0 0.1,0 0.1,0 l 12.9,12.9 c -3.9,0.1 -8,0.1 -12.2,0.3 -37.89,0.9 -111.68,18.1 -113.11,44.9 l -0.16,-4.4 C 18.92,144.3 74.6,126.3 123.9,124 Z" />
<path fill="#93bbc7" d="m 307.8,309.3 c 10.4,17.5 17.3,29.1 30.7,37.3 3.5,2.2 8.6,4.1 13.8,5.7 l 12.2,12.2 c -11.9,3.9 -31.2,9.8 -48,13.6 -8.7,2 -28.8,5.4 -48.4,5.7 -19,0.2 -35.7,-3.6 -45.9,-10.4 -3.7,-2.5 -16,-11.9 -16.6,-27.8 -0.1,-3.4 0.4,-6.9 1.4,-10.4 5.4,-18.4 17,-23 21.2,-24.1 -5.5,-7.6 -11.6,-16.2 -17.8,-25.1 -11.2,-15.9 -22.7,-32.4 -32.3,-43.9 -22.6,-27.4 -45.5,-42.9 -92.06,-55.2 -67.43,-17.8 -73.58,4.1 -74,4.1 l -0.18,-1.6 c 11.56,-19.2 40.24,-15.4 74.89,-8 47.95,9.9 70.55,30.8 93.65,58.7 l 0,0.2 c 9.6,11.6 21.2,28.1 32.4,44.1 12,17.1 23.4,33.4 31.7,42.6 5,4.4 11.7,9.1 20.7,13.6 8.2,3.3 17.9,6.2 26.9,8.5 -14.7,-6.1 -31.5,-14.6 -40.4,-24.2 -5.2,-5.7 -8.2,-12.6 -8.4,-20 -0.5,-12.6 7.1,-24.2 17.7,-27.1 6,-1.6 11.6,-1.5 17,0.2 l 27.7,27.7 c 0.7,1.2 1.5,2.4 2.1,3.6 z" />
<path fill="#93bbc7" d="M 156,165.9 C 109.4,154.5 55.5,155.6 55.5,155.6 l 0,-0.2 c 0.22,0 7.19,-4.4 38.59,-9.1 13.71,-2.1 33.01,-3.3 41.11,-3.1 2.8,0 5.5,0.1 8.2,0.2 l 27,27 c -5,-1.8 -9.9,-3.4 -14.4,-4.5 z" />
<path fill="#93bbc7" d="m 112.4,112.4 c -2.7,0.7 -4.1,1.1 -4.1,1.1 0,0 1.2,-0.7 3.3,-1.9 l 0.8,0.8 z" />
<path fill="#93bbc7" d="m 236.5,808.4 c 2.4,0.9 4.8,2 7.1,3 l -7.3,0 c -0.3,-0.1 -0.6,-0.2 -0.9,-0.3 -31.6,-12.7 -67.4,-12.4 -101.1,0.3 l -7.7,0 c 36.3,-15.6 75.5,-16.8 109.9,-3 z" />
<path fill="#93bbc7" d="m 49.96,761.6 c 11.71,-29.8 36.08,-44 54.44,-50.7 21,-7.6 46.1,-9.3 65.6,-4.6 21.2,5.2 42.3,16.9 57.2,26.5 -13.9,-11.4 -27.4,-20.8 -39.5,-29.3 -0.8,-0.6 -1.7,-1.2 -2.6,-1.8 -10.4,-6.1 -44.1,-25.9 -68.3,-38.5 -18.17,-9.5 -41.18,-25.6 -47.41,-48.1 -1.54,-5.5 -5.79,-24.8 3.99,-41.1 4.04,-6.7 9.86,-11.8 17.35,-15 -3.21,-3.7 -6.24,-7.4 -9.09,-11 -23.35,-29.5 -31.5,-59.4 -33.92,-81.4 -1.92,1.2 -5.05,2.7 -8.99,2.9 -4.49,0.3 -8.87,-1.2 -13.04,-4.3 -7.89,-6.1 -10.1,-20.3 -4.93,-31.9 9,-20.1 23.67,-35.4 34.39,-46.7 3.35,-3.5 6.24,-6.5 8.53,-9.2 l 4.72,-5.6 -2.24,7 c 0,0.1 -5.23,16.5 -1.79,28.4 2.65,9.3 4.41,12.5 7.6,18.4 1.18,2.1 2.5,4.6 4.14,7.8 4.83,9.4 6,18.4 3.21,24.7 -1.85,4.1 -5.4,6.9 -10.26,8.2 -0.9,0.2 -1.9,0.4 -2.99,0.5 -4.72,0.2 -9.61,-1.2 -9.82,-1.3 l -0.76,-0.2 -0.22,-0.7 c -0.91,-3.3 -2.23,-9.6 -2.44,-22.5 0,-3 -1.14,-23.4 3.03,-44.7 -6.47,15.6 -5.65,62.1 -5.68,64.5 1.76,22 9.22,53.4 33.72,84.3 3.02,3.8 6.24,7.7 9.67,11.6 2.02,-0.7 4.15,-1.3 6.39,-1.8 0.54,-0.1 1.14,-0.2 1.74,-0.3 -0.2,-7.8 -0.4,-17.1 -0.6,-27.9 -0.2,-9.7 -0.4,-20.6 -0.6,-32.6 C 99.85,468.6 98.76,447.5 94.47,405.9 89.64,359.1 73.72,324 73.56,323.7 l -3.06,-6.7 5.36,5 c 1.59,1.5 39.14,36.8 49.84,70 9.4,29.6 7.5,62.8 7,69.9 4.3,0.7 17,3.8 26.7,17.5 10,14.2 2.9,38.3 2.6,39.4 l -1.5,4.8 -1.3,-4.9 c 0,-0.1 -3.6,-12.6 -13,-17.4 -4.9,-2.4 -10.6,-2.4 -16.9,0.1 -5.5,2.2 -21.6,12.2 -23.7,53.7 22,-2 73.8,8.6 113.8,56.5 -6.5,-7.8 -12.4,-23.6 -45.5,-48.1 -13.7,-10.1 -29.5,-12 -29.5,-12 -1.9,-5.2 9.6,-28.8 33.9,-20.3 19.9,6.9 27.4,19.9 35.3,38.8 5.5,12.9 9.3,25.3 15.7,45.8 2.4,7.4 5,15.8 8.2,25.9 l 2.4,7.6 -4.9,-6.3 c -0.2,-0.2 -8.7,-11.6 -32.1,-24.7 -6.8,-3.8 -28,-12.4 -35.6,-14.1 -14.7,-3.1 -25.9,-3.4 -31.9,-8.2 -4.6,-3.6 -7.4,-8.6 -7.8,-14.1 -0.5,-5 1,-9.8 4,-13.2 3.3,-3.6 6.8,-5.5 11.3,-5.9 -10.5,-2.9 -25.2,-6 -37.4,-4.7 -0.1,4 -0.1,8.2 0,12.8 21.4,22.5 49.9,48.2 82.7,75.1 20.3,16.6 79.5,69 118.9,152.5 2.1,4.5 4.1,8.8 6,12.9 l -6.9,0 c -2.7,-5.7 -5.8,-11.8 -9.7,-19.2 l 0,0 C 254.5,710.5 209,669.5 188.1,652 c -31.4,-26.4 -61.2,-54.8 -82.4,-76.7 0,1.4 0.1,2.8 0.2,4.3 0.3,4.9 0.9,9.6 1.6,14.2 6.7,41.5 29.9,66.2 51.7,84.9 7.8,6.7 17.3,13.5 27.5,20.6 2,1.1 3.1,1.8 3.2,1.8 l -0.2,0.3 c 23.6,16.5 52.8,35.1 78.9,65.9 12.5,14.9 22.7,26.6 33.1,44.1 l -5.9,0 c -8.9,-14.5 -18.8,-28.2 -29.4,-40.3 -23.2,-26.5 -59.1,-52.7 -97.1,-62 -35.2,-8.5 -96.6,2.5 -116.65,53.6 -6.75,17.1 -8.81,33.6 -7.31,48.7 l -3.02,0 c -1.5,-16.2 1.04,-33 7.64,-49.8 z m 51.84,-203 0,0 c -0.4,0.1 -0.8,0.1 -1.2,0.2 -1.73,0.4 -3.37,0.9 -4.95,1.4 2.07,2.3 4.23,4.7 6.45,7.1 -0.1,-2.6 -0.2,-5.5 -0.3,-8.7 z M 157.3,681 c -22.2,-19.1 -45.9,-44.3 -52.7,-86.7 -0.7,-4.7 -1.2,-9.5 -1.6,-14.4 -0.3,-1.9 -0.5,-4.6 -0.7,-8.2 -3.34,-3.5 -6.53,-7 -9.57,-10.4 -7.33,3 -12.97,7.7 -16.86,14.2 l 0,0 c -7.29,12.2 -6.68,28.1 -3.68,38.9 5.95,21.4 28.31,37 46.01,46.2 13.7,7.2 30.5,16.7 44.4,24.7 -1.8,-1.5 -3.6,-2.9 -5.3,-4.3 z" />
<path fill="#93bbc7" d="m 323.5,811.4 c -1.5,-4.7 -2.9,-9.3 -4.1,-13.9 -11.9,-46 13.1,-87.1 13.3,-87.6 l 3.7,-5.9 -1,6.9 c -0.1,0.2 -3.4,23.9 -1.1,39.7 3.2,21.9 5.6,30.6 15.4,55.2 0.8,1.9 1.6,3.8 2.5,5.6 l -28.7,0 z" />
<path fill="#c1d2a8" d="m 301.8,673.3 -20.5,53.3 C 266.5,693.1 262.2,653.6 258.2,605.4 253.7,553.1 222,526.3 221.6,526 l -6,-4.9 7.4,2.4 c 0.5,0.2 48.6,16.8 66,59 5.1,12 4,30.1 3.3,37.1 4.6,-2.5 15,-7.4 27.5,-8.2 2.4,-0.1 4.8,-0.1 7.1,0.1 32.6,2.5 42.4,31.9 42.5,32.2 l 0.9,2.8 -2.8,-1 c -0.1,-0.1 -10.9,-3.9 -24,-3.2 -13.6,0.8 -31.8,6.9 -41.7,31 z" />
<path fill="#93bbc7" d="m 52.57,719.2 c -7.57,9.2 -11.91,16.2 -11.91,16.2 0,0 -1.26,-15.2 3.6,-26.2 8.1,-18.2 23.06,-23.4 23.06,-23.4 0,0 -5.89,-1.8 -13.47,-15.9 C 43.52,650.8 55,616 55,616 l 0,0 c 0,0 -1.19,31.4 21.72,52.1 15.68,14.2 86.18,29.3 86.18,29.3 0,0 -29.6,-4 -48.3,-3.8 -19.81,0.2 -44.79,4.6 -62.04,25.6 z" />
<path fill="#aa5b8f" d="m 218.2,782.6 c 17.6,6.3 33.9,18.3 45.8,28.8 l -8.4,0 c -14.5,-8.1 -33.7,-15.7 -55,-16.4 -35.4,-1.2 -52.7,2.6 -74.8,11.9 -4.3,1.8 -7.6,3.3 -10,4.5 l -13.8,0 c -4.04,-2.8 -8.93,-7.1 -11.67,-13.3 -13.06,-29.2 6.65,-50.7 6.65,-50.7 0,0 16.62,30.2 49.42,28.1 39.4,-2.6 53.5,0.6 71.8,7.1 z" />
<path fill="#93bbc7" d="m 1551,614.4 c 3,-10.8 3,-26.7 -4,-38.9 l 0,0 c -4,-6.5 -10,-11.2 -17,-14.2 -3,3.4 -6,6.9 -9,10.4 -1,3.6 -1,6.3 -1,8.2 0,4.9 -1,9.7 -2,14.4 -7,42.4 -30,67.6 -52,86.7 -2,1.4 -4,2.8 -6,4.3 14,-8 31,-17.5 45,-24.7 17,-9.2 40,-24.8 46,-46.2 z" />
<path fill="#93bbc7" d="m 1522,558.8 c 0,-0.1 -1,-0.1 -1,-0.2 l 0,0 c 0,3.2 0,6.1 0,8.7 2,-2.4 4,-4.8 6,-7.1 -1,-0.5 -3,-1 -5,-1.4 z" />
<path fill="#93bbc7" d="m 1446,183.3 c -3,1.3 -7,2.6 -10,4 l -23,22.8 c 12,-6 24,-10.8 33,-13.8 81,-27.1 148,-39 165,-8.2 l 0,-2.9 c -7,-34.6 -83,-31.1 -165,-1.9 z" />
<path fill="#93bbc7" d="m 1295,486.9 c 5,-13.9 0,-25.6 -4,-31.2 5,-1.4 18,-6.3 18,-21.8 0,-0.6 0,-1.3 0,-2 0,-22 -17,-28.5 -30,-33.8 -4,-1.3 -7,-2.5 -10,-3.9 l 0,-0.2 c -11,-5.7 -19,-9.8 -25,-15.1 l -33,32.8 c 0,4.2 1,8.4 1,12.6 4,25 13,37 21,45.5 8,7.8 21,13.7 35,7.1 8,-3.9 15,-15.2 15,-15.6 l 1,-0.5 -1,-0.6 c 0,-0.6 -1,-6.3 -16,-15.7 -6,-3.9 -17,-13.3 -23,-20.9 -5,-7.8 -8,-16.9 -10,-24.5 0,0.5 0,1.1 1,1.7 0,0.7 0,1.3 0,2 4,8.2 8,16.7 36,36.8 10,7.2 17,15.9 17,16 l 0,0.5 c 3,4.5 9,16.2 5,30 -4,10.8 -12,19.5 -22,24.5 -15,6.6 -36,9.3 -54,0.4 -23,-10.8 -37,-29.2 -41,-63.9 l -5,4.8 c 5,32.4 20,53.6 45,64.5 20,8.7 39,7.2 58,-1.7 11,-5.4 18,-16.1 21,-27.8 z" />
<path fill="#93bbc7" d="m 1499,124 c 0,0 0,0 0,0 l -13,12.9 c 4,0.1 8,0.1 12,0.3 38,0.9 112,18.1 113,44.9 l 0,-4.4 c -7,-33.4 -63,-51.4 -112,-53.7 z" />
<path fill="#93bbc7" d="m 1315,309.3 c -10,17.5 -17,29.1 -31,37.3 -3,2.2 -8,4.1 -13,5.7 l -13,12.2 c 12,3.9 32,9.8 48,13.6 9,2 29,5.4 49,5.7 19,0.2 35,-3.6 46,-10.4 3,-2.5 16,-11.9 16,-27.8 0,-3.4 0,-6.9 -1,-10.4 -6,-18.4 -17,-23 -21,-24.1 5,-7.6 11,-16.2 17,-25.1 12,-15.9 23,-32.4 33,-43.9 22,-27.4 45,-42.9 92,-55.2 67,-17.8 73,4.1 74,4.1 l 0,-1.6 c -12,-19.2 -40,-15.4 -75,-8 -48,9.9 -70,30.8 -93,58.7 l -1,0.2 c -9,11.6 -21,28.1 -32,44.1 -12,17.1 -23,33.4 -32,42.6 -5,4.4 -11,9.1 -20,13.6 -9,3.3 -18,6.2 -27,8.5 14,-6.1 31,-14.6 40,-24.2 5,-5.7 8,-12.6 9,-20 0,-12.6 -8,-24.2 -18,-27.1 -6,-1.6 -12,-1.5 -17,0.2 l -28,27.7 c -1,1.2 -1,2.4 -2,3.6 z" />
<path fill="#93bbc7" d="m 1467,165.9 c 46,-11.4 100,-10.3 100,-10.3 l 0,-0.2 c 0,0 -7,-4.4 -38,-9.1 -14,-2.1 -33,-3.3 -41,-3.1 -3,0 -6,0.1 -9,0.2 l -27,27 c 5,-1.8 10,-3.4 15,-4.5 z" />
<path fill="#93bbc7" d="m 1510,112.4 c 3,0.7 5,1.1 5,1.1 0,0 -2,-0.7 -4,-1.9 l -1,0.8 z" />
<path fill="#93bbc7" d="m 1386,808.4 c -2,0.9 -4,2 -7,3 l 8,0 c 0,-0.1 0,-0.2 0,-0.3 32,-12.7 68,-12.4 102,0.3 l 7,0 c -36,-15.6 -75,-16.8 -110,-3 z" />
<path fill="#93bbc7" d="m 1573,761.6 c -12,-29.8 -36,-44 -55,-50.7 -21,-7.6 -46,-9.3 -65,-4.6 -21,5.2 -42,16.9 -57,26.5 14,-11.4 27,-20.8 39,-29.3 1,-0.6 2,-1.2 3,-1.8 10,-6.1 44,-25.9 68,-38.5 18,-9.5 41,-25.6 47,-48.1 2,-5.5 6,-24.8 -4,-41.1 -4,-6.7 -9,-11.8 -17,-15 3,-3.7 6,-7.4 9,-11 24,-29.5 32,-59.4 34,-81.4 2,1.2 5,2.7 9,2.9 5,0.3 9,-1.2 13,-4.3 8,-6.1 10,-20.3 5,-31.9 -9,-20.1 -24,-35.4 -34,-46.7 -4,-3.5 -7,-6.5 -9,-9.2 l -5,-5.6 3,7 c 0,0.1 5,16.5 1,28.4 -2,9.3 -4,12.5 -7,18.4 -1,2.1 -3,4.6 -4,7.8 -5,9.4 -6,18.4 -3,24.7 1,4.1 5,6.9 10,8.2 1,0.2 2,0.4 3,0.5 5,0.2 9,-1.2 10,-1.3 l 0,-0.2 1,-0.7 c 0,-3.3 2,-9.6 2,-22.5 0,-3 1,-23.4 -3,-44.7 6,15.6 6,62.1 6,64.5 -2,22 -10,53.4 -34,84.3 -3,3.8 -6,7.7 -10,11.6 -2,-0.7 -4,-1.3 -6,-1.8 -1,-0.1 -1,-0.2 -2,-0.3 0,-7.8 1,-17.1 1,-27.9 0,-9.7 0,-20.6 0,-32.6 1,-26.6 2,-47.7 6,-89.3 5,-46.8 21,-81.9 21,-82.2 l 3,-6.7 -5,5 c -2,1.5 -39,36.8 -50,70 -9,29.6 -7,62.8 -7,69.9 -4,0.7 -17,3.8 -26,17.5 -11,14.2 -3,38.3 -3,39.4 l 1,4.8 2,-4.9 c 0,-0.1 3,-12.6 13,-17.4 5,-2.4 10,-2.4 17,0.1 5,2.2 21,12.2 23,53.7 -22,-2 -74,8.6 -114,56.5 7,-7.8 13,-23.6 46,-48.1 14,-10.1 29,-12 29,-12 2,-5.2 -9,-28.8 -33,-20.3 -20,6.9 -28,19.9 -36,38.8 -5,12.9 -9,25.3 -15,45.8 -3,7.4 -5,15.8 -9,25.9 l -2,7.6 5,-6.3 c 0,-0.2 9,-11.6 32,-24.7 7,-3.8 28,-12.4 36,-14.1 14,-3.1 25,-3.4 31,-8.2 5,-3.6 8,-8.6 8,-14.1 1,-5 -1,-9.8 -4,-13.2 -3,-3.6 -7,-5.5 -11,-5.9 10,-2.9 25,-6 37,-4.7 1,4 1,8.2 0,12.8 -21,22.5 -50,48.2 -82,75.1 -21,16.6 -80,69 -119,152.5 -2,4.5 -4,8.8 -6,12.9 l 7,0 c 2,-5.7 5,-11.8 9,-19.2 l 0,0 c 42,-81.7 88,-122.7 109,-140.2 31,-26.4 61,-54.8 82,-76.7 0,1.4 0,2.8 0,4.3 0,4.9 -1,9.6 -2,14.2 -6,41.5 -30,66.2 -51,84.9 -8,6.7 -18,13.5 -28,20.6 -2,1.1 -3,1.8 -3,1.8 l 0,0.3 c -23,16.5 -53,35.1 -79,65.9 -12,14.9 -22,26.6 -33,44.1 l 6,0 c 9,-14.5 19,-28.2 29,-40.3 24,-26.5 60,-52.7 98,-62 35,-8.5 96,2.5 116,53.6 7,17.1 9,33.6 8,48.7 l 3,0 c 1,-16.2 -1,-33 -8,-49.8 z m -52,-203 0,0 c 0,0.1 1,0.1 1,0.2 2,0.4 4,0.9 5,1.4 -2,2.3 -4,4.7 -6,7.1 0,-2.6 0,-5.5 0,-8.7 z M 1466,681 c 22,-19.1 45,-44.3 52,-86.7 1,-4.7 2,-9.5 2,-14.4 0,-1.9 0,-4.6 1,-8.2 3,-3.5 6,-7 9,-10.4 7,3 13,7.7 17,14.2 l 0,0 c 7,12.2 7,28.1 4,38.9 -6,21.4 -29,37 -46,46.2 -14,7.2 -31,16.7 -45,24.7 2,-1.5 4,-2.9 6,-4.3 z" />
<path fill="#93bbc7" d="m 1299,811.4 c 2,-4.7 3,-9.3 4,-13.9 12,-46 -13,-87.1 -13,-87.6 l -3,-5.9 0,6.9 c 1,0.2 4,23.9 2,39.7 -4,21.9 -6,30.6 -16,55.2 -1,1.9 -1,3.8 -2,5.6 l 28,0 z" />
<path fill="#c1d2a8" d="m 1321,673.3 21,53.3 c 14,-33.5 19,-73 23,-121.2 4,-52.3 36,-79.1 36,-79.4 l 6,-4.9 -7,2.4 c -1,0.2 -49,16.8 -66,59 -5,12 -4,30.1 -3,37.1 -5,-2.5 -15,-7.4 -28,-8.2 -2,-0.1 -5,-0.1 -7,0.1 -33,2.5 -42,31.9 -43,32.2 l 0,2.8 2,-1 c 0,-0.1 11,-3.9 24,-3.2 14,0.8 32,6.9 42,31 z" />
<path fill="#93bbc7" d="m 1570,719.2 c 8,9.2 12,16.2 12,16.2 0,0 1,-15.2 -3,-26.2 -8,-18.2 -23,-23.4 -23,-23.4 0,0 5,-1.8 13,-15.9 10,-19.1 -1,-53.9 -1,-53.9 l 0,0 c 0,0 1,31.4 -22,52.1 -16,14.2 -86,29.3 -86,29.3 0,0 30,-4 48,-3.8 20,0.2 45,4.6 62,25.6 z" />
<path fill="#aa5b8f" d="m 1405,782.6 c -18,6.3 -34,18.3 -46,28.8 l 8,0 c 15,-8.1 34,-15.7 55,-16.4 36,-1.2 53,2.6 75,11.9 4,1.8 8,3.3 10,4.5 l 14,0 c 4,-2.8 9,-7.1 12,-13.3 13,-29.2 -7,-50.7 -7,-50.7 0,0 -17,30.2 -50,28.1 -39,-2.6 -53,0.6 -71,7.1 z" />
<path fill="#93bbc7" d="m 1008,72.17 c 11,-3 27,-3.61 39,3.68 l 0,0 c 7,3.89 12,9.53 15,16.86 -4,3.04 -7,6.23 -11,9.59 -3,0.2 -6,0.4 -8,0.7 -5,0.4 -10,0.9 -14,1.6 -42.8,6.8 -68,30.5 -87.1,52.7 -1.4,1.7 -2.9,3.5 -4.3,5.3 8,-13.9 17.4,-30.7 24.6,-44.4 9.3,-17.7 24.8,-40.1 45.8,-46.05 z" />
<path fill="#93bbc7" d="m 1064,100.6 c 0,0.4 0,0.8 0,1.2 l 0,0 c -3,0.1 -6,0.2 -8,0.3 2,-2.22 4,-4.38 7,-6.45 0,1.58 1,3.22 1,4.95 z" />
<path fill="#93bbc7" d="m 1440,176.5 c -2,3.6 -3,7.2 -4,10.8 l -23,22.8 c 6,-12.6 11,-23.9 14,-33.1 27,-81.11 39,-148.49 8,-165.49 l 3,0.2 c 34,7.48 31,83.46 2,164.79 z" />
<path fill="#93bbc7" d="m 1136,327.4 c 14,-4.4 26,0.8 31,4.3 2,-5.2 6,-17.6 22,-18.2 1,0 1,0 2,0 22,0.6 28,17.4 34,30.8 1,3.4 2,6.6 4,9.4 l 0,0.3 c 6,11.2 10,19.1 15,24.9 l -33,32.8 c -4,-0.2 -8,-0.5 -12,-1.1 -25,-3.3 -37,-12.3 -46,-20.8 -8,-7.7 -14,-20.9 -7,-34.8 4,-8.3 15,-15.2 16,-15.5 l 0,-0.3 1,0.2 c 0,0.1 6,1.8 15,16.5 4,6.1 14,17.3 21,22.8 8,5.5 17,8.6 25,10.4 -1,-0.2 -1,-0.5 -2,-0.8 -1,-0.3 -1,-0.6 -2,-0.9 -8,-3.7 -17,-7.5 -37,-35.5 -7,-10 -16,-16.6 -16,-16.7 l 0,-0.3 c -5,-3 -16,-9.1 -30,-4.7 -11,3.4 -20,11.3 -25,22 -6,14.4 -9,35.3 0,54 11,22.6 29,36.4 64,40.9 l -5,4.8 c -32,-4.7 -54,-20.4 -65,-45.5 -8,-19.8 -7,-38.4 2,-57.4 6,-11.4 16,-17.9 28,-21.6 z" />
<path fill="#93bbc7" d="m 1499,123.9 c 0,0 0,0.1 0,0.1 l -13,12.9 c 0,-3.9 0,-8 0,-12.2 -1,-37.89 -18,-111.68 -45,-113.11 l 4,-0.16 c 34,7.49 52,63.17 54,112.47 z" />
<path fill="#93bbc7" d="m 1314,307.8 c -18,10.4 -30,17.3 -38,30.7 -2,3.5 -4,8.6 -5,13.8 l -13,12.2 c -4,-11.9 -9,-31.2 -13,-48 -2,-8.7 -6,-28.8 -6,-48.4 0,-19 4,-35.7 10,-45.9 3,-3.7 12,-16 28,-16.6 4,-0.1 7,0.4 11,1.4 18,5.4 23,17 24,21.2 7,-5.5 16,-11.6 25,-17.8 16,-11.2 32,-22.7 44,-32.3 27,-22.6 43,-45.5 55,-92.06 18,-67.43 -4,-73.58 -4,-74 l 1,-0.18 c 20,11.56 16,40.24 9,74.89 -10,47.95 -31,70.55 -59,93.65 l 0,0 c -12,9.6 -29,21.2 -45,32.4 -17,12 -33,23.4 -42,31.7 -4,5 -9,11.7 -14,20.7 -3,8.2 -6,17.9 -8,26.9 6,-14.7 14,-31.5 24,-40.4 6,-5.2 13,-8.2 20,-8.4 13,-0.5 24,7.1 27,17.7 2,6 2,11.6 0,17 l -28,27.7 c -1,0.7 -2,1.5 -3,2.1 z" />
<path fill="#93bbc7" d="m 1457,156 c 11,-46.6 10,-100.5 10,-100.5 l 0,0 c 0,0.22 5,7.19 10,38.59 2,13.71 3,33.01 3,41.11 0,2.8 0,5.5 -1,8.2 l -27,27 c 2,-5 4,-9.9 5,-14.4 z" />
<path fill="#93bbc7" d="m 1510,112.4 c 0,-2.7 -1,-4.1 -1,-4.1 0,0 1,1.2 2,3.3 l -1,0.8 z" />
<path fill="#93bbc7" d="m 814.5,236.5 c -1,2.4 -2,4.8 -3.1,7.1 l 0,-7.3 c 0.2,-0.3 0.3,-0.6 0.4,-0.9 12.7,-31.6 12.4,-67.4 -0.4,-101.1 l 0,-7.7 c 15.6,36.3 16.9,75.5 3.1,109.9 z" />
<path fill="#93bbc7" d="m 861.3,49.96 c 29.8,11.71 44,36.08 50.6,54.44 7.6,21 9.4,46.1 4.6,65.6 -5.1,21.2 -16.8,42.3 -26.4,57.2 11.3,-13.9 20.8,-27.4 29.2,-39.5 0.6,-0.8 1.2,-1.7 1.8,-2.6 6.2,-10.4 25.9,-44.1 38.6,-68.3 9.5,-18.17 25.5,-41.18 48.3,-47.41 5,-1.54 25,-5.79 41,3.99 7,4.04 12,9.86 15,17.35 4,-3.21 7,-6.24 11,-9.09 29,-23.35 59,-31.5 81,-33.92 -1,-1.92 -2,-5.05 -3,-8.99 0,-4.49 2,-8.87 5,-13.04 6,-7.89 20,-10.1 32,-4.93 20,9 35,23.67 46,34.39 4,3.35 7,6.24 9,8.53 l 6,4.72 -7,-2.24 c 0,0 -16,-5.23 -28,-1.79 -10,2.65 -13,4.41 -19,7.6 -2,1.18 -4,2.5 -8,4.14 -9,4.83 -18,6 -24,3.21 -4,-1.85 -7,-5.4 -8,-10.26 -1,-0.9 -1,-1.9 -1,-2.99 0,-4.72 1,-9.61 1,-9.82 l 1,-0.76 0,-0.22 c 4,-0.91 10,-2.23 23,-2.44 3,0 23,-1.14 44,3.03 -15,-6.47 -62,-5.65 -64,-5.68 -22,1.76 -53,9.22 -84,33.72 -4,3.02 -8,6.24 -12,9.67 1,2.02 1,4.15 2,6.39 0,0.54 0,1.14 0,1.74 8,-0.2 17,-0.4 28,-0.6 10,-0.2 21,-0.4 33,-0.6 26,-0.65 47,-1.74 89,-6.03 47,-4.83 82,-20.75 82,-20.91 l 7,-3.06 -5,5.36 c -2,1.59 -37,39.14 -70,49.84 -30,9.4 -63,7.5 -70,7 -1,4.3 -4,17 -18,26.7 -14,10 -38,2.9 -39,2.6 l -5,-1.5 5,-1.3 c 0,0 13,-3.6 18,-13 2,-4.9 2,-10.6 -1,-16.9 -2,-5.5 -12,-21.6 -53,-23.7 2,22 -9,73.8 -57,113.8 8,-6.5 24,-12.4 48,-45.5 10,-13.7 12,-29.5 12,-29.5 6,-1.9 29,9.6 21,33.9 -7,19.9 -20,27.4 -39,35.3 -13,5.5 -25,9.3 -46,15.7 -7.4,2.4 -15.8,5 -25.8,8.2 l -7.7,2.4 6.4,-4.9 c 0.2,-0.2 11.6,-8.7 25.1,-32.1 3,-6.8 12,-28 14,-35.6 3,-14.7 3,-25.9 8,-31.9 3,-4.6 8,-7.4 14,-7.8 5,-0.5 10,1 13,4 4,3.3 6,6.8 6,11.3 3,-10.5 6,-25.2 5,-37.4 -4,-0.1 -8,-0.1 -13,0 -23,21.4 -48,49.9 -75.1,82.7 -16.7,20.3 -69,79.5 -152.5,118.9 -4.6,2.1 -8.9,4.1 -13,6 l 0,-6.9 c 5.8,-2.7 11.9,-5.8 19.3,-9.7 l 0,0 c 81.6,-42 122.6,-87.5 140.1,-108.4 26.4,-31.4 55.2,-61.2 77.2,-82.4 -2,0 -3,0.1 -5,0.2 -5,0.3 -9,0.9 -14,1.6 -41.4,6.7 -66.2,29.9 -84.9,51.7 -6.6,7.8 -13.4,17.3 -20.5,27.5 -1.2,2 -1.8,3.1 -1.9,3.2 l -0.2,-0.2 c -16.5,23.6 -35.1,52.8 -65.9,78.9 -14.9,12.5 -26.6,22.7 -44.2,33.1 l 0,-5.9 c 14.6,-8.9 28.3,-18.8 40.3,-29.4 26.5,-23.2 52.8,-59.1 62,-97.1 C 922.3,134.1 911.2,72.7 860.2,52.65 843,45.9 826.5,43.84 811.4,45.34 l 0,-3.02 c 16.2,-1.5 33.1,1.04 49.9,7.64 z m 202.7,51.84 0,0 c 0,-0.4 0,-0.8 0,-1.2 0,-1.73 -1,-3.37 -1,-4.95 -3,2.07 -5,4.23 -7,6.45 2,-0.1 5,-0.2 8,-0.3 z m -122.1,55.5 c 19.1,-22.2 44.3,-45.9 87.1,-52.7 4,-0.7 9,-1.2 14,-1.6 2,-0.3 5,-0.5 8,-0.7 4,-3.34 7,-6.53 11,-9.57 -3,-7.33 -8,-12.97 -15,-16.86 l 0,0 c -12,-7.29 -28,-6.68 -39,-3.68 -21,5.95 -36.5,28.31 -45.8,46.01 -7.2,13.7 -16.6,30.5 -24.6,44.4 1.4,-1.8 2.9,-3.6 4.3,-5.3 z" />
<path fill="#93bbc7" d="m 811.4,323.5 c 4.7,-1.5 9.4,-2.9 14,-4.1 45.9,-11.9 87.1,13.1 87.5,13.3 l 5.9,3.7 -6.8,-1 c -0.3,-0.1 -23.9,-3.4 -39.7,-1.1 -21.9,3.2 -30.7,5.6 -55.2,15.4 -1.9,0.8 -3.8,1.6 -5.7,2.5 l 0,-28.7 z" />
<path fill="#c1d2a8" d="m 949.5,301.8 -53.3,-20.5 c 33.6,-14.8 73.1,-19.1 120.8,-23.1 53,-4.5 80,-36.2 80,-36.6 l 5,-6 -3,7.4 c 0,0.5 -16,48.6 -59,66 -12,5.1 -30,4 -37,3.3 3,4.6 8,15 8,27.5 1,2.4 1,4.8 0,7.1 -2,32.6 -31.5,42.4 -31.8,42.5 l -2.8,0.9 1,-2.8 c 0,-0.1 3.9,-10.9 3.1,-24 -0.8,-13.6 -6.8,-31.8 -31,-41.7 z" />
<path fill="#93bbc7" d="M 903.6,52.57 C 894.4,45 887.5,40.66 887.5,40.66 c 0,0 15.2,-1.26 26.1,3.6 18.3,8.1 23.5,23.06 23.5,23.06 0,0 1.7,-5.89 15.8,-13.47 C 972,43.52 1007,55 1007,55 l 0,0 c 0,0 -31.5,-1.19 -52.3,21.72 -14.1,15.68 -29.2,86.18 -29.2,86.18 0,0 3.9,-29.6 3.7,-48.3 C 929,94.8 924.7,69.82 903.6,52.57 Z" />
<path fill="#c793b5" d="M 840.3,218.2 C 834,235.8 822,252.1 811.4,264 l 0,-8.4 c 8.1,-14.5 15.7,-33.7 16.4,-55 1.3,-35.4 -2.6,-52.7 -11.9,-74.8 -1.8,-4.3 -3.3,-7.6 -4.5,-10 l 0,-13.8 c 2.8,-4.04 7.2,-8.93 13.3,-11.67 29.3,-13.06 50.8,6.65 50.8,6.65 0,0 -30.2,16.62 -28.1,49.42 2.6,39.4 -0.7,53.5 -7.1,71.8 z" />
</svg>